<?xml version="1.0" encoding="UTF-8"?>
<svg width="231px" height="230px" viewBox="0 0 231 230" version="1.1" xmlns="http://www.w3.org/2000/svg" xmlns:xlink="http://www.w3.org/1999/xlink">
    <!-- Generator: Sketch 60.1 (88133) - https://sketch.com -->
    <title>Group 3</title>
    <desc>Created with Sketch.</desc>
    <g id="Page-1" stroke="none" stroke-width="1" fill="none" fill-rule="evenodd">
        <g id="Group-3" fill="#4FC6B2">
            <g id="Group-2" transform="translate(47.000000, 55.000000)">
                <path d="M8.67259308,97 L103,97 C108.522847,97 113,101.477153 113,107 L113,109 C113,114.522847 108.522847,119 103,119 L5.13608041,119 C2.92694141,119 1.13608041,117.209139 1.13608041,115 C1.13608041,114.66967 1.17699915,114.340611 1.25790196,114.020341 L4.79441463,100.020341 C5.24305272,98.2443164 6.84077996,97 8.67259308,97 Z" id="Rectangle-Copy-5"></path>
                <path d="M20.9386853,22 C18.7295463,22 16.9386853,20.209139 16.9386853,18 C16.9386853,17.720731 16.9679318,17.4422298 17.0259462,17.1690532 L19.9991206,3.16905317 C20.3915146,1.32135914 22.0229589,2.12334229e-15 23.9118597,0 L101,0 C117.568542,0 131,15.4461761 131,34.5 C131,53.5538239 117.568542,69 101,69 C100.378172,69 99.7607636,68.9782433 99.1483178,68.9353558 C98.7719051,68.9778411 98.3885403,69 98,69 L12.9457324,69 C10.7365934,69 8.94573243,67.209139 8.94573243,65 C8.94573243,64.7188664 8.97537074,64.4385162 9.03415595,64.1635973 L12.2415686,49.1635973 C12.6361015,47.3184985 14.2663367,46 16.1531451,46 L72.7074191,46.0011777 L72.7067324,46 L88,46 C94.5254567,46 99.8343928,40.7914556 99.9962001,34.3049748 L100,34 C100,27.372583 94.627417,22 88,22 L88,22 L20.9386853,22 Z" id="Combined-Shape"></path>
                <path d="M105.066892,50 C122.150776,50 136,65.4461761 136,84.5 C136,103.553824 122.150776,119 105.066892,119 C91.9283286,119 80.7029243,109.864264 76.218888,96.9777402 C76.4778911,96.9928088 76.7381058,97 77,97 L77,97 L96,97 C103.731986,97 110,90.7319865 110,83 C110,75.2680135 103.731986,69 96,69 L96,69 L77.4240601,68.9997464 C82.5140318,57.73042 92.9810294,50 105.066892,50 Z" id="Combined-Shape"></path>
            </g>
            <path d="M192.601744,29.7481787 C239.595699,72.0617258 243.389919,144.459761 201.076372,191.453716 C158.762825,238.447671 86.3647902,242.241891 39.3708352,199.928344 C2.11248025,166.38077 -7.99121033,113.922567 10.5090168,70.2071365 L0.154707668,66.3867946 L33.4587056,46.585438 L35.5073548,79.4303815 L23.5384999,75.0142636 C6.86817914,113.367974 15.5761198,159.664628 48.3670913,189.189751 C89.4098467,226.144814 152.639572,222.831084 189.594634,181.788329 C226.549697,140.745574 223.235968,77.5158487 182.193213,40.5607858 C145.842765,7.83069544 92.0885,6.68809538 54.5984562,35.3685185 L45.9415875,24.237423 C88.8911596,-9.04683973 150.797795,-7.89226606 192.601744,29.7481787 Z" id="Combined-Shape"></path>
        </g>
    </g>
</svg>